<?xml version="1.0" standalone="no"?>
<!DOCTYPE svg PUBLIC "-//W3C//DTD SVG 20010904//EN"
 "http://www.w3.org/TR/2001/REC-SVG-20010904/DTD/svg10.dtd">
<svg version="1.0" xmlns="http://www.w3.org/2000/svg"
 width="1000.000000pt" height="1000.000000pt" viewBox="0 0 1000.000000 1000.000000"
 preserveAspectRatio="xMidYMid meet">

<g transform="translate(0.000000,1000.000000) scale(0.100000,-0.100000)"
fill="#000000" stroke="none">
<path d="M9310 3555 c0 -24 -3 -25 -60 -25 -53 0 -60 -2 -60 -20 0 -11 -4 -20
-10 -20 -5 0 -10 -11 -10 -25 0 -24 -2 -25 -65 -25 -58 0 -65 -2 -65 -20 0
-17 -7 -20 -45 -20 -41 0 -45 -2 -45 -25 0 -18 -5 -25 -20 -25 -11 0 -20 -7
-20 -15 0 -11 -11 -15 -38 -15 -21 0 -42 -3 -46 -7 -4 -4 -38 -6 -77 -4 -64 3
-69 1 -69 -18 0 -14 -6 -21 -20 -21 -15 0 -20 -7 -20 -25 0 -20 -5 -25 -25
-25 -20 0 -25 -5 -25 -25 0 -24 -1 -24 -65 -18 l-65 6 0 -27 c0 -19 -5 -26
-20 -26 -13 0 -20 -7 -20 -20 0 -18 -7 -20 -70 -20 -68 0 -70 -1 -70 -25 0
-18 -5 -25 -20 -25 -13 0 -20 -7 -20 -20 0 -17 -7 -20 -45 -20 -41 0 -45 -2
-45 -25 0 -18 5 -25 20 -25 17 0 20 -7 20 -45 l0 -45 -39 0 c-35 0 -39 -3 -45
-31 -10 -54 -7 -64 27 -78 17 -7 48 -20 67 -28 19 -8 44 -19 55 -24 22 -10 85
-26 155 -39 25 -5 61 -14 80 -19 64 -20 127 -12 300 35 187 52 347 184 463
383 60 101 117 282 117 368 0 30 5 45 15 49 11 4 15 21 15 55 l0 49 -45 0
c-41 0 -45 -2 -45 -25z"/>
</g>
</svg>
